<?xml version="1.0" encoding="UTF-8" standalone="no"?>
<svg width="135px" height="110px" viewBox="0 0 135 110" version="1.1" xmlns="http://www.w3.org/2000/svg" xmlns:xlink="http://www.w3.org/1999/xlink">
	<!-- Generator: Sketch 3.6.1 (26313) - http://www.bohemiancoding.com/sketch -->
	<title>weibo</title>
	<desc>Created with Sketch.</desc>
	<defs></defs>
	<g id="Page-1" stroke="none" stroke-width="1" fill="none" fill-rule="evenodd">
		<g id="weibo">
			<path d="M101.383,53.333 C99.486,52.766 98.184,52.377 99.178,49.887 C101.329,44.473 101.552,39.803 99.219,36.472 C94.846,30.225 82.879,30.561 69.161,36.304 C69.161,36.297 64.854,38.189 65.955,34.771 C68.065,27.988 67.748,22.308 64.464,19.027 C57.023,11.58 37.233,19.309 20.26,36.274 C7.552,48.984 0.172,62.455 0.172,74.104 C0.172,96.385 28.744,109.93 56.697,109.93 C93.338,109.93 117.713,88.64 117.713,71.738 C117.713,61.526 109.112,55.731 101.383,53.333 M56.771,101.945 C34.468,104.144 15.214,94.065 13.764,79.42 C12.316,64.778 29.229,51.122 51.53,48.918 C73.836,46.71 93.09,56.794 94.538,71.432 C95.983,86.08 79.077,99.74 56.771,101.945" id="Fill-77"></path>
			<path d="M125.715,12.56 C116.868,2.75 103.815,-0.988 91.766,1.573 L91.762,1.573 C88.977,2.167 87.198,4.911 87.797,7.694 C88.389,10.478 91.131,12.259 93.918,11.662 C102.489,9.843 111.763,12.507 118.057,19.474 C124.341,26.441 126.047,35.947 123.356,44.278 L123.357,44.281 C122.479,46.997 123.963,49.9 126.681,50.777 C129.389,51.654 132.297,50.17 133.175,47.464 C133.175,47.46 133.175,47.45 133.176,47.444 C136.954,35.72 134.569,22.36 125.715,12.56" id="Fill-79"></path>
			<path d="M112.048801,24.7261259 C107.742801,19.9501259 101.384801,18.1341259 95.5138008,19.3821259 C93.1138008,19.8931259 91.5848008,22.2551259 92.0998008,24.6571259 C92.6138008,27.0471259 94.9728008,28.5851259 97.3658008,28.0631259 L97.3658008,28.0681259 C100.234801,27.4601259 103.345801,28.3441259 105.453801,30.6741259 C107.560801,33.0121259 108.128801,36.1961259 107.221801,38.9891259 L107.224801,38.9891259 C106.472801,41.3191259 107.748801,43.8241259 110.082801,44.5821259 C112.418801,45.3291259 114.920801,44.0551259 115.673801,41.7211259 C117.518801,36.0071259 116.365801,29.5031259 112.048801,24.7251259" id="Fill-81"></path>
			<path d="M59.0647762,59.7325428 C48.4507762,56.9695428 36.4537762,62.2595428 31.8437762,71.6125428 C27.1487762,81.1505428 31.6887762,91.7385428 42.4107762,95.2005428 C53.5197762,98.7815428 66.6107762,93.2925428 71.1647762,82.9985428 C75.6537762,72.9335428 70.0477762,62.5705428 59.0647762,59.7325428 M50.9587762,84.0915428 C48.8017762,87.5325428 44.1817762,89.0405428 40.7007762,87.4525428 C37.2717762,85.8925428 36.2607762,81.8925428 38.4187762,78.5365428 C40.5497762,75.1955428 45.0137762,73.7045428 48.4687762,75.1535428 C51.9617762,76.6425428 53.0787762,80.6135428 50.9587762,84.0915428 M58.0657762,74.9685428 C57.2857762,76.3045428 55.5607762,76.9445428 54.2107762,76.3885428 C52.8807762,75.8425428 52.4647762,74.3505428 53.2197762,73.0385428 C53.9977762,71.7345428 55.6557762,71.0985428 56.9807762,71.6225428 C58.3277762,72.1165428 58.8107762,73.6265428 58.0657762,74.9685428" id="Fill-82"></path>
		</g>
	</g>
</svg>